<svg width="207" height="184" viewBox="0 0 207 184" fill="none" xmlns="http://www.w3.org/2000/svg">
<path opacity="0.26" d="M185.792 85.7605C184.491 72.3885 177.186 60.7732 166.601 53.6188V38.2598C166.601 17.2172 150.181 0 130.088 0H129.882C109.787 0 93.3676 17.2172 93.3676 38.2598V55.8625C84.4329 63.0753 78.3812 73.7091 77.2083 85.7622C77.0711 87.1773 77.0017 88.6113 77 90.0642V93.0223C77 117.312 96.7325 137 121.077 137H141.92C148.957 137.011 155.893 135.332 162.144 132.106C162.252 132.051 162.36 131.996 162.466 131.934C176.462 124.565 186 109.902 186 93.0146V90.0565C186 88.6082 185.931 87.1762 185.792 85.7605ZM156.082 48.4024C151.522 46.8619 146.738 46.0787 141.923 46.084H121.08C115.176 46.0761 109.331 47.2559 103.893 49.553V42.2646C103.893 41.0476 103.935 39.8454 104.017 38.6582C104.533 31.3166 106.624 24.6241 110.347 19.5502C114.673 13.6572 121.197 9.95199 129.989 9.95199C145.808 9.95199 154.079 21.7089 155.759 36.4505C155.976 38.3815 156.084 40.3232 156.082 42.2663L156.082 48.4024Z" fill="url(#paint0_linear_2_10947)"/>
<path d="M157 42.4916V61H146.509V46.5217C146.511 44.5668 146.404 42.6133 146.188 40.6704C144.514 25.8388 136.269 14.0084 120.5 14.0084C112.563 14.0084 106.479 17.0667 102.2 22.0428C101.754 22.5611 101.328 23.1011 100.921 23.6626C97.2111 28.7692 95.1231 35.5077 94.6083 42.8907C94.5226 44.0846 94.484 45.2975 94.484 46.5191V60.9974H84V42.4916C84 31.7022 88.2516 21.9141 95.0707 14.9086C101.634 8.16578 110.575 4 120.397 4H120.602C140.633 4 157 21.3223 157 42.4916Z" fill="url(#paint1_linear_2_10947)"/>
<path opacity="0.82" d="M157 45.7455V57C153.672 55.0052 150.084 53.441 146.327 52.3481V46.6607C146.33 44.7694 146.22 42.8795 146 41C149.875 42.0954 153.576 43.692 157 45.7455Z" fill="url(#paint2_linear_2_10947)"/>
<path d="M157 53.8792V57C153.57 54.9077 149.871 53.267 146 52.1208V49C149.871 50.1463 153.57 51.7869 157 53.8792Z" fill="url(#paint3_linear_2_10947)"/>
<path d="M177 94.0136V96.9743C177 111.922 169.539 125.129 158.135 133.084C156.639 134.129 155.08 135.079 153.466 135.929C153.357 135.986 153.251 136.042 153.143 136.101C146.892 139.33 139.956 141.01 132.919 141H112.077C87.7321 141 68 121.294 68 96.9829V94.0222C68 92.5704 68.0694 91.1351 68.2083 89.7165C69.3813 77.6528 75.4331 67.0114 84.368 59.7906C84.6973 59.523 85.0307 59.2612 85.368 59.0051C86.569 58.0893 87.8169 57.2365 89.1065 56.45C89.4054 56.2661 89.7064 56.0865 90.0093 55.9111C96.7137 52.0299 104.328 49.9904 112.077 50H132.922C135.732 49.9988 138.536 50.2647 141.295 50.7941C147.133 51.9169 152.682 54.2134 157.604 57.544C168.189 64.7005 175.49 76.3302 176.791 89.7122C176.929 91.1257 176.999 92.5595 177 94.0136Z" fill="url(#paint4_linear_2_10947)"/>
<path opacity="0.42" d="M177 94.0515V97.0146C177 113.93 167.461 128.619 153.463 136C155.048 134.538 156.648 132.843 158.03 130.892C169.876 114.114 164.018 79.6988 144.975 64.8628C125.912 50.0104 104.21 54.8786 90 55.909C96.7056 52.0265 104.321 49.9877 112.07 50.0001H132.916C155.811 50.0001 174.625 67.4397 176.791 89.7432C176.929 91.1607 176.999 92.5968 177 94.0515Z" fill="url(#paint5_linear_2_10947)"/>
<path d="M116 141H111.43C87.443 141 68 121.294 68 96.9798V94.0188C68 92.5663 68.0687 91.131 68.2061 89.7128C69.4042 77.203 75.7699 66.224 85.1128 59C77.9466 75.9473 76.3889 103.363 85.5538 120.547C94.5108 137.339 109.369 139.899 116 141Z" fill="url(#paint6_linear_2_10947)"/>
<path opacity="0.5" d="M128 141H112.651C88.5417 141 69 121.293 69 96.9788V94.0178C69 92.5652 69.069 91.1299 69.2071 89.7117C70.4114 77.2016 76.8093 66.2223 86.1996 58.9982C93.796 53.1472 103.093 49.9847 112.652 50.0001H124.746C119.583 52.9172 114.723 56.7197 114.102 62.4586C113.085 71.8701 124.755 74.5853 127.293 87.4701C130.664 104.606 112.703 113.493 115.686 127.379C117.047 133.716 122.085 137.887 128 141Z" fill="url(#paint7_linear_2_10947)"/>
<path d="M132.167 112.576C132.266 112.983 132.273 113.407 132.185 113.817C132.098 114.227 131.92 114.611 131.665 114.941C131.409 115.271 131.082 115.538 130.71 115.721C130.337 115.905 129.928 116 129.514 116H114.486C114.072 116 113.663 115.905 113.29 115.721C112.917 115.538 112.591 115.271 112.335 114.941C112.079 114.611 111.901 114.227 111.814 113.817C111.727 113.407 111.733 112.983 111.832 112.576L115.57 97.2019C115.689 96.7126 115.674 96.1996 115.526 95.7185C115.377 95.2375 115.102 94.8066 114.729 94.4727C113.524 93.4022 112.566 92.0777 111.923 90.5925C111.279 89.1073 110.965 87.4974 111.003 85.8762C111.127 80.1159 115.633 75.4162 121.245 75.0273C121.469 75.0107 121.694 75.002 121.921 75.0003C124.163 74.984 126.358 75.6614 128.209 76.9418C130.06 78.2222 131.48 80.0444 132.279 82.1641C133.078 84.2839 133.217 86.5998 132.677 88.8016C132.138 91.0034 130.946 92.9858 129.261 94.4831C128.89 94.8163 128.616 95.2458 128.47 95.7251C128.323 96.2044 128.31 96.7152 128.43 97.2019L132.167 112.576Z" fill="white"/>
<path d="M115.203 97.2013L111.388 112.576C111.287 112.983 111.281 113.407 111.37 113.817C111.458 114.227 111.64 114.611 111.901 114.941C112.162 115.271 112.496 115.538 112.876 115.721C113.256 115.905 113.674 116 114.097 116H112.559C112.136 116 111.719 115.905 111.338 115.721C110.958 115.538 110.625 115.271 110.364 114.941C110.103 114.611 109.921 114.227 109.832 113.817C109.743 113.407 109.749 112.983 109.85 112.576L113.667 97.2013C113.788 96.7119 113.772 96.1989 113.621 95.7178C113.469 95.2367 113.187 94.8059 112.806 94.4721C111.577 93.4012 110.6 92.0766 109.943 90.5914C109.286 89.1062 108.965 87.4965 109.003 85.8753C109.135 79.8861 114.101 75.0418 120.149 75C120.436 75 120.719 75.007 121 75.027C115.27 75.4159 110.671 80.1158 110.544 85.8762C110.505 87.4974 110.826 89.1074 111.483 90.5926C112.14 92.0779 113.118 93.4024 114.347 94.4729C114.728 94.8071 115.008 95.2379 115.159 95.7188C115.31 96.1998 115.326 96.7124 115.203 97.2013Z" fill="url(#paint8_linear_2_10947)"/>
<path opacity="0.82" d="M84.0009 48.8963C87.3037 46.0971 91.0084 43.7742 95 42C94.9146 43.1869 94.872 44.3892 94.872 45.607V53.6198C91.149 55.2871 87.6767 57.4333 84.5495 60H84L84.0009 48.8963Z" fill="url(#paint9_linear_2_10947)"/>
<path d="M95 49V53.1422C91.2927 55.0265 87.8082 57.327 84.6126 60H84V56.1718C87.3714 53.3491 91.0641 50.9415 95 49Z" fill="url(#paint10_linear_2_10947)"/>
<path opacity="0.21" d="M185 139.339L165.983 156C164.976 154.55 164.3 152.911 164 151.192L180.189 137H180.197C181.951 137.448 183.588 138.245 185 139.339Z" fill="url(#paint11_linear_2_10947)"/>
<path opacity="0.12" d="M72.4699 1H16.5301C7.40077 1 0 8.38711 0 17.4996V17.5004C0 26.6129 7.40077 34 16.5301 34H72.4699C81.5992 34 89 26.6129 89 17.5004V17.4996C89 8.38711 81.5992 1 72.4699 1Z" fill="url(#paint12_linear_2_10947)"/>
<path d="M82.7694 13H31.2306C22.819 13 16 19.9396 16 28.5C16 37.0604 22.819 44 31.2306 44H82.7694C91.181 44 98 37.0604 98 28.5C98 19.9396 91.181 13 82.7694 13Z" fill="url(#paint13_linear_2_10947)"/>
<path d="M35.8091 22V35M42.6183 28.4996H29M40.6238 33.0961L30.9937 23.9039M30.9937 33.0961L40.6238 23.9039M58.5 22V35M65.3091 28.4996H51.6909M63.3146 33.0961L53.6854 23.9039M53.6854 33.0961L63.3146 23.9039M81.1909 22V35M88 28.4996H74.3817M86.0055 33.0961L76.3762 23.9039M76.3762 33.0961L86.0055 23.9039" stroke="white" stroke-width="5" stroke-linecap="round" stroke-linejoin="round"/>
<path opacity="0.18" d="M196.98 125.914C196.574 130.1 195.538 137.594 192.929 145.802C191.96 148.874 190.803 151.883 189.465 154.813C185.107 164.288 178.312 173.475 167.731 178.641C167.51 178.755 167.291 178.862 167.063 178.968C167.042 178.98 167.02 178.991 166.997 179C166.976 178.988 166.954 178.977 166.931 178.968C165.476 178.291 164.064 177.526 162.703 176.677C161.744 176.08 160.821 175.449 159.932 174.783C158.185 173.475 156.541 172.033 155.016 170.471C154.232 169.671 153.482 168.845 152.764 167.995C150.917 165.801 149.251 163.46 147.783 160.995C145.203 156.695 143.227 152.15 141.71 147.749C139.504 141.332 138.272 135.222 137.594 130.614C137.327 128.787 137.144 127.198 137.02 125.918C136.924 124.939 137.169 123.958 137.713 123.138C138.257 122.319 139.067 121.713 140.006 121.422L145.554 119.687L164.101 113.889L166.93 113.008L166.962 113L193.987 121.418C194.927 121.709 195.738 122.316 196.283 123.134C196.828 123.953 197.075 124.935 196.98 125.914Z" fill="url(#paint14_linear_2_10947)"/>
<path d="M206.981 130.111C206.574 134.359 205.538 141.968 202.929 150.3C201.959 153.418 200.802 156.472 199.464 159.447C195.106 169.065 188.311 178.391 177.73 183.636C177.51 183.751 177.291 183.86 177.063 183.967C177.041 183.98 177.019 183.991 176.996 184C176.975 183.987 176.953 183.976 176.93 183.967C175.476 183.28 174.064 182.504 172.702 181.642C171.744 181.036 170.82 180.395 169.932 179.719C168.184 178.391 166.541 176.928 165.016 175.342C164.232 174.529 163.481 173.691 162.764 172.829C160.917 170.601 159.251 168.224 157.783 165.723C155.203 161.357 153.226 156.744 151.71 152.275C149.504 145.762 148.272 139.559 147.594 134.88C147.327 133.026 147.144 131.413 147.02 130.113C146.924 129.12 147.169 128.124 147.713 127.292C148.257 126.461 149.067 125.845 150.006 125.549L155.553 123.788L174.1 117.902L176.929 117.008L176.962 117L203.984 125.55C204.924 125.845 205.735 126.459 206.281 127.29C206.827 128.121 207.074 129.117 206.981 130.111Z" fill="url(#paint15_linear_2_10947)"/>
<path d="M192.997 149.002C192.997 149.343 192.987 149.676 192.958 150.009C192.479 157.902 186.27 164.238 178.447 164.932C177.966 164.979 177.482 165.002 176.998 165C176.851 165 176.705 165 176.558 164.991C174.071 164.928 171.634 164.285 169.439 163.114C167.116 161.857 165.136 160.051 163.67 157.853C162.434 155.997 161.604 153.901 161.235 151.701C161.078 150.84 160.999 149.966 161 149.09V149.005C161 146.552 161.564 144.132 162.647 141.931C163.731 139.731 165.306 137.809 167.251 136.314C169.195 134.82 171.457 133.792 173.862 133.311C176.267 132.83 178.75 132.908 181.12 133.54H181.13C184.535 134.45 187.544 136.459 189.69 139.255C191.836 142.051 193 145.477 193 149.002L192.997 149.002Z" fill="white"/>
<path d="M185 145L175.188 154.645C175.06 154.771 174.906 154.868 174.737 154.928C174.568 154.989 174.389 155.011 174.21 154.995C174.032 154.978 173.86 154.922 173.705 154.831C173.55 154.741 173.417 154.617 173.314 154.469L169 148.243" stroke="#C544E6" stroke-width="5" stroke-linecap="square" stroke-linejoin="round"/>
<path d="M181.36 60.2907C181.934 60.2555 182.508 60.2288 183.081 60.1988C183.093 60.1981 183.105 60.1999 183.116 60.2039C183.128 60.208 183.138 60.2143 183.147 60.2224C183.156 60.2305 183.164 60.2402 183.169 60.2512C183.174 60.2621 183.177 60.2739 183.178 60.286C183.178 60.2981 183.176 60.3102 183.172 60.3216C183.168 60.333 183.162 60.3434 183.154 60.3524C183.146 60.3614 183.136 60.3687 183.125 60.3739C183.114 60.3791 183.102 60.3821 183.09 60.3827H183.081C182.506 60.3526 181.932 60.326 181.36 60.2907ZM186.178 60.063L187.899 60.0002C187.937 59.9988 187.975 60.0049 188.011 60.0183C188.047 60.0316 188.08 60.0519 188.108 60.0779C188.136 60.104 188.159 60.1353 188.175 60.1702C188.191 60.205 188.2 60.2426 188.201 60.2808C188.202 60.3191 188.196 60.3573 188.183 60.3932C188.17 60.4291 188.149 60.462 188.123 60.49C188.097 60.5181 188.066 60.5407 188.031 60.5567C187.996 60.5726 187.958 60.5816 187.92 60.583H187.899L186.178 60.5202C186.117 60.5202 186.059 60.4961 186.016 60.4533C185.973 60.4104 185.949 60.3522 185.949 60.2916C185.949 60.2309 185.973 60.1728 186.016 60.1299C186.059 60.087 186.117 60.063 186.178 60.063ZM191.055 60.1601C191.638 60.2514 192.215 60.3774 192.783 60.5374C192.895 60.5699 192.99 60.6453 193.047 60.7472C193.104 60.8491 193.118 60.9693 193.087 61.0816C193.055 61.1939 192.981 61.2893 192.879 61.3471C192.778 61.4049 192.658 61.4203 192.545 61.3901L192.521 61.3823C191.992 61.2039 191.453 61.0547 190.908 60.9354C190.811 60.9101 190.728 60.8491 190.674 60.7648C190.621 60.6805 190.601 60.579 190.62 60.4809C190.638 60.3828 190.693 60.2953 190.774 60.2361C190.854 60.1769 190.954 60.1503 191.053 60.1618L191.055 60.1601ZM195.75 61.7176C196.276 61.9937 196.785 62.3008 197.275 62.6373C197.396 62.7198 197.479 62.8469 197.506 62.9906C197.533 63.1343 197.502 63.2828 197.419 63.4035C197.337 63.5242 197.209 63.6072 197.065 63.6342C196.922 63.6612 196.773 63.63 196.652 63.5475L196.635 63.5346C196.19 63.2055 195.727 62.9008 195.249 62.6218C195.129 62.5553 195.04 62.444 195.002 62.3122C194.965 62.1804 194.981 62.039 195.047 61.9191C195.114 61.7992 195.225 61.7106 195.357 61.6728C195.489 61.635 195.631 61.6511 195.751 61.7176H195.75ZM199.721 64.7156C200.134 65.147 200.521 65.6019 200.881 66.078C200.982 66.2108 201.025 66.3779 201.002 66.5425C200.979 66.7072 200.891 66.8559 200.758 66.956C200.625 67.0561 200.458 67.0993 200.293 67.0762C200.128 67.053 199.979 66.9654 199.879 66.8327L199.871 66.8215C199.55 66.373 199.206 65.9426 198.838 65.5322C198.729 65.415 198.672 65.2595 198.678 65.0998C198.684 64.9401 198.753 64.7894 198.87 64.6808C198.988 64.5722 199.143 64.5146 199.303 64.5206C199.463 64.5266 199.614 64.5959 199.723 64.713L199.721 64.7156ZM202.546 68.838C202.799 69.3807 203.021 69.9374 203.21 70.5054C203.266 70.6739 203.253 70.8578 203.174 71.0167C203.095 71.1755 202.955 71.2963 202.787 71.3525C202.618 71.4087 202.434 71.3957 202.275 71.3163C202.116 71.2369 201.995 71.0977 201.939 70.9292V70.9206C201.772 70.3984 201.576 69.8861 201.35 69.3863C201.283 69.2283 201.28 69.0501 201.342 68.8898C201.404 68.7295 201.526 68.5997 201.682 68.528C201.838 68.4564 202.017 68.4486 202.179 68.5064C202.341 68.5641 202.474 68.6828 202.55 68.8371L202.546 68.838ZM203.9 73.6591C203.933 73.9571 203.958 74.2556 203.975 74.5547C203.983 74.7043 203.989 74.8538 203.993 75.0034C203.993 75.1521 203.999 75.3051 203.999 75.4504C203.999 75.6327 203.927 75.8076 203.798 75.9366C203.669 76.0656 203.493 76.138 203.311 76.138C203.128 76.138 202.953 76.0656 202.824 75.9366C202.695 75.8076 202.623 75.6327 202.623 75.4504V75.0378C202.623 74.9003 202.615 74.7645 202.607 74.6269C202.593 74.3536 202.572 74.0808 202.543 73.8087C202.527 73.6309 202.582 73.4542 202.696 73.3163C202.809 73.1784 202.972 73.0903 203.149 73.0708C203.327 73.0512 203.505 73.1019 203.645 73.2118C203.786 73.3217 203.878 73.4823 203.902 73.6591H203.9ZM203.999 78.5456L203.993 80.2646C203.987 80.4397 203.913 80.6056 203.787 80.7273C203.66 80.849 203.492 80.917 203.317 80.917C203.141 80.917 202.973 80.849 202.846 80.7273C202.72 80.6056 202.646 80.4397 202.64 80.2646L202.634 78.5456C202.633 78.3645 202.704 78.1907 202.832 78.0622C202.96 77.9338 203.133 77.8612 203.314 77.8605C203.496 77.8598 203.67 77.9311 203.798 78.0586C203.927 78.1861 203.999 78.3594 204 78.5404L203.999 78.5456ZM203.972 83.3607L203.954 85.0797C203.954 85.2488 203.886 85.4109 203.767 85.5304C203.647 85.6499 203.485 85.7171 203.316 85.7171C203.146 85.7171 202.984 85.6499 202.865 85.5304C202.745 85.4109 202.678 85.2488 202.678 85.0797L202.66 83.3607C202.664 83.1907 202.734 83.029 202.855 82.9096C202.976 82.7902 203.139 82.7225 203.309 82.7207C203.479 82.7189 203.643 82.7832 203.767 82.9001C203.891 83.0169 203.964 83.1771 203.972 83.3469C203.972 83.3469 203.972 83.3572 203.972 83.3607ZM203.913 88.1758L203.886 89.8949C203.886 90.0458 203.826 90.1905 203.719 90.2972C203.612 90.4039 203.467 90.4639 203.316 90.4639C203.165 90.4639 203.02 90.4039 202.913 90.2972C202.807 90.1905 202.747 90.0458 202.747 89.8949L202.719 88.1758C202.722 88.021 202.785 87.8733 202.895 87.7639C203.004 87.6546 203.152 87.5921 203.307 87.5896C203.462 87.5872 203.612 87.645 203.725 87.7508C203.839 87.8566 203.906 88.0022 203.914 88.1569C203.913 88.162 203.913 88.1706 203.913 88.1758ZM203.824 92.9909L203.784 94.71C203.784 94.834 203.735 94.9529 203.647 95.0406C203.559 95.1283 203.44 95.1776 203.316 95.1776C203.192 95.1776 203.073 95.1283 202.985 95.0406C202.897 94.9529 202.848 94.834 202.848 94.71L202.808 92.9909C202.807 92.9243 202.819 92.8581 202.843 92.796C202.867 92.7339 202.903 92.6771 202.949 92.6289C202.995 92.5808 203.05 92.5421 203.111 92.5152C203.172 92.4883 203.238 92.4737 203.304 92.4722C203.371 92.4707 203.437 92.4823 203.5 92.5064C203.562 92.5304 203.619 92.5665 203.667 92.6125C203.764 92.7055 203.821 92.8332 203.824 92.9677V92.9909ZM203.697 97.8069C203.679 98.3802 203.664 98.9535 203.641 99.526C203.637 99.6091 203.601 99.6875 203.54 99.7449C203.48 99.8022 203.4 99.8342 203.317 99.8342C203.233 99.8342 203.153 99.8022 203.093 99.7449C203.032 99.6875 202.996 99.6091 202.992 99.526C202.969 98.9527 202.954 98.3794 202.936 97.8069C202.933 97.7059 202.97 97.6078 203.039 97.5341C203.108 97.4605 203.204 97.4173 203.305 97.4141C203.406 97.4109 203.504 97.448 203.578 97.5171C203.652 97.5863 203.695 97.6819 203.698 97.7828C203.697 97.7897 203.697 97.7992 203.697 97.8069ZM203.525 102.622L203.449 104.341C203.446 104.374 203.431 104.406 203.406 104.428C203.381 104.451 203.349 104.464 203.316 104.464C203.282 104.464 203.25 104.451 203.225 104.428C203.201 104.406 203.185 104.374 203.183 104.341L203.106 102.622C203.106 102.568 203.127 102.516 203.164 102.477C203.202 102.438 203.253 102.415 203.307 102.413C203.361 102.41 203.413 102.429 203.454 102.464C203.495 102.5 203.52 102.549 203.525 102.603C203.526 102.609 203.526 102.616 203.525 102.622ZM144.874 172.313C144.3 172.345 143.726 172.37 143.153 172.399C143.13 172.4 143.108 172.392 143.091 172.377C143.074 172.361 143.064 172.34 143.063 172.317C143.062 172.294 143.07 172.272 143.086 172.255C143.101 172.238 143.123 172.228 143.146 172.227H143.153C143.726 172.257 144.3 172.282 144.874 172.313ZM140.054 172.525L138.334 172.583C138.298 172.584 138.263 172.579 138.23 172.566C138.197 172.554 138.166 172.535 138.14 172.51C138.114 172.486 138.093 172.457 138.079 172.425C138.064 172.393 138.056 172.358 138.055 172.322C138.053 172.287 138.059 172.251 138.072 172.218C138.084 172.185 138.103 172.155 138.127 172.129C138.152 172.103 138.181 172.082 138.213 172.067C138.245 172.053 138.28 172.045 138.316 172.043H138.334L140.054 172.102C140.108 172.105 140.159 172.129 140.196 172.168C140.233 172.208 140.253 172.26 140.253 172.314C140.253 172.368 140.233 172.42 140.196 172.459C140.159 172.498 140.108 172.522 140.054 172.526V172.525ZM135.235 172.679L133.514 172.724C133.408 172.723 133.306 172.68 133.23 172.606C133.154 172.531 133.11 172.43 133.107 172.323C133.104 172.217 133.143 172.113 133.215 172.035C133.287 171.956 133.386 171.908 133.493 171.902H133.514L135.235 171.946C135.332 171.946 135.426 171.985 135.494 172.054C135.563 172.122 135.602 172.216 135.602 172.313C135.602 172.41 135.563 172.503 135.494 172.572C135.426 172.641 135.332 172.679 135.235 172.679ZM130.416 172.798L128.695 172.833C128.559 172.831 128.43 172.777 128.333 172.681C128.237 172.585 128.181 172.456 128.179 172.321C128.176 172.185 128.226 172.054 128.318 171.954C128.411 171.855 128.538 171.795 128.673 171.787H128.695L130.416 171.822C130.545 171.822 130.669 171.874 130.761 171.965C130.852 172.057 130.903 172.181 130.903 172.31C130.903 172.439 130.852 172.563 130.761 172.654C130.669 172.746 130.545 172.797 130.416 172.797V172.798ZM125.596 172.89L123.876 172.914C123.796 172.915 123.718 172.901 123.644 172.871C123.571 172.842 123.504 172.799 123.447 172.744C123.391 172.688 123.345 172.623 123.314 172.55C123.283 172.478 123.266 172.4 123.265 172.321C123.264 172.242 123.279 172.163 123.308 172.09C123.337 172.016 123.381 171.949 123.436 171.893C123.491 171.836 123.557 171.791 123.629 171.76C123.702 171.728 123.78 171.712 123.859 171.711H123.876L125.596 171.735C125.749 171.735 125.896 171.796 126.004 171.904C126.113 172.012 126.173 172.159 126.173 172.312C126.173 172.464 126.113 172.611 126.004 172.719C125.896 172.827 125.749 172.888 125.596 172.888V172.89ZM120.776 172.95L119.055 172.966C118.886 172.962 118.725 172.892 118.606 172.771C118.487 172.651 118.42 172.489 118.418 172.319C118.417 172.15 118.481 171.987 118.598 171.864C118.714 171.741 118.874 171.668 119.043 171.661H119.055L120.776 171.677C120.941 171.683 121.097 171.753 121.211 171.872C121.326 171.99 121.39 172.149 121.39 172.314C121.39 172.479 121.326 172.637 121.211 172.756C121.097 172.874 120.941 172.944 120.776 172.95ZM115.956 172.986L114.236 172.994C114.146 172.994 114.058 172.977 113.975 172.943C113.892 172.909 113.816 172.86 113.753 172.797C113.624 172.669 113.552 172.496 113.551 172.316C113.55 172.135 113.621 171.962 113.749 171.833C113.876 171.705 114.049 171.632 114.23 171.632H114.236L115.956 171.639C116.135 171.639 116.306 171.71 116.433 171.836C116.559 171.963 116.63 172.134 116.63 172.312C116.63 172.491 116.559 172.662 116.433 172.788C116.306 172.914 116.135 172.985 115.956 172.985V172.986ZM111.137 173H109.416C109.234 173 109.059 172.928 108.93 172.799C108.801 172.67 108.728 172.495 108.728 172.312C108.728 172.13 108.801 171.955 108.93 171.826C109.059 171.697 109.234 171.625 109.416 171.625H111.137C111.32 171.625 111.495 171.697 111.624 171.826C111.753 171.955 111.825 172.13 111.825 172.312C111.825 172.495 111.753 172.67 111.624 172.799C111.495 172.928 111.32 173 111.137 173ZM106.271 172.954C105.673 172.909 105.078 172.831 104.489 172.719C104.316 172.685 104.163 172.585 104.063 172.439C103.964 172.293 103.926 172.114 103.958 171.941C103.99 171.767 104.09 171.613 104.235 171.513C104.38 171.412 104.559 171.373 104.733 171.404C105.274 171.5 105.819 171.566 106.367 171.6C106.547 171.611 106.715 171.693 106.834 171.829C106.953 171.964 107.014 172.14 107.002 172.32C106.991 172.5 106.909 172.667 106.773 172.786C106.638 172.905 106.461 172.966 106.281 172.954L106.271 172.954ZM101.398 171.787C100.847 171.555 100.309 171.292 99.7879 170.999C99.6515 170.914 99.5528 170.78 99.512 170.625C99.4711 170.47 99.4913 170.305 99.5682 170.164C99.6452 170.023 99.7732 169.917 99.926 169.867C100.079 169.817 100.245 169.828 100.39 169.896C100.874 170.156 101.373 170.388 101.884 170.592C102.043 170.655 102.171 170.779 102.239 170.937C102.307 171.094 102.31 171.273 102.247 171.432C102.183 171.592 102.059 171.72 101.901 171.788C101.743 171.856 101.565 171.858 101.405 171.795H101.397L101.398 171.787ZM97.1648 169.136C96.7168 168.744 96.2925 168.325 95.8941 167.882C95.7964 167.773 95.7455 167.629 95.7522 167.482C95.759 167.335 95.823 167.197 95.9305 167.097C96.038 166.996 96.1804 166.942 96.3275 166.945C96.4745 166.948 96.6145 167.009 96.7174 167.114C97.1016 167.51 97.5068 167.886 97.9313 168.239C98.0516 168.339 98.1271 168.483 98.1412 168.639C98.1553 168.795 98.1069 168.95 98.0066 169.07C97.9063 169.19 97.7624 169.265 97.6065 169.279C97.4505 169.294 97.2954 169.245 97.1751 169.145L97.1665 169.138L97.1648 169.136ZM94.0058 165.298C93.7083 164.786 93.4403 164.257 93.2031 163.714C93.1506 163.601 93.1453 163.472 93.1883 163.355C93.2313 163.238 93.3191 163.142 93.4324 163.09C93.5457 163.038 93.6751 163.032 93.7924 163.075C93.9096 163.118 94.0049 163.206 94.0574 163.319C94.3008 163.818 94.5725 164.303 94.8712 164.771C94.9393 164.884 94.9605 165.019 94.9302 165.148C94.9 165.276 94.8207 165.388 94.7094 165.459C94.598 165.53 94.4633 165.554 94.3339 165.527C94.2046 165.501 94.0908 165.424 94.017 165.315L94.0066 165.299L94.0058 165.298ZM92.2533 160.679C92.1364 160.103 92.0526 159.521 92.0021 158.935C91.992 158.844 92.0185 158.753 92.0758 158.681C92.1332 158.609 92.2167 158.563 92.308 158.553C92.3992 158.543 92.4908 158.57 92.5625 158.627C92.6342 158.684 92.6802 158.768 92.6904 158.859C92.7676 159.413 92.8765 159.963 93.0164 160.505C93.0308 160.555 93.035 160.607 93.0288 160.659C93.0226 160.711 93.006 160.761 92.9802 160.806C92.9543 160.851 92.9197 160.89 92.8783 160.922C92.8369 160.954 92.7896 160.977 92.7391 160.99C92.6887 161.003 92.6361 161.005 92.5846 160.998C92.5331 160.99 92.4836 160.972 92.4391 160.945C92.3947 160.918 92.3561 160.882 92.3256 160.84C92.2952 160.798 92.2735 160.75 92.2619 160.699L92.2576 160.68L92.2533 160.679ZM92.009 155.806L92.0391 154.946L92.0735 154.087C92.0735 154.04 92.0921 153.995 92.1251 153.962C92.1581 153.93 92.2028 153.911 92.2495 153.911C92.2961 153.911 92.3409 153.93 92.3739 153.962C92.4069 153.995 92.4254 154.04 92.4254 154.087L92.4598 154.946L92.4899 155.806C92.4892 155.868 92.4646 155.927 92.4214 155.971C92.3781 156.015 92.3195 156.041 92.2577 156.043C92.1958 156.046 92.1355 156.024 92.0892 155.983C92.0429 155.942 92.0142 155.885 92.009 155.823V155.806ZM92.2086 150.991L92.2499 150.195L92.2912 150.991C92.2912 151.002 92.2866 151.013 92.2786 151.021C92.2705 151.029 92.2596 151.034 92.2482 151.034C92.2368 151.034 92.2258 151.029 92.2177 151.021C92.2097 151.013 92.2051 151.002 92.2051 150.991H92.2086Z" fill="#C65AE1"/>
<defs>
<linearGradient id="paint0_linear_2_10947" x1="131.501" y1="146.98" x2="131.501" y2="6.73283" gradientUnits="userSpaceOnUse">
<stop stop-color="#DEE1E2"/>
<stop offset="1" stop-color="#EFEFEF"/>
</linearGradient>
<linearGradient id="paint1_linear_2_10947" x1="120.5" y1="58.0307" x2="120.5" y2="4.95981" gradientUnits="userSpaceOnUse">
<stop stop-color="#DEE1E2"/>
<stop offset="1" stop-color="#EFEFEF"/>
</linearGradient>
<linearGradient id="paint2_linear_2_10947" x1="151.501" y1="39.7497" x2="151.501" y2="60.0038" gradientUnits="userSpaceOnUse">
<stop stop-color="#DEE1E2"/>
<stop offset="1" stop-color="#B4BCBE"/>
</linearGradient>
<linearGradient id="paint3_linear_2_10947" x1="161.43" y1="58.0519" x2="144.778" y2="49.0145" gradientUnits="userSpaceOnUse">
<stop stop-color="#DEE1E2"/>
<stop offset="1" stop-color="#B4BCBE"/>
</linearGradient>
<linearGradient id="paint4_linear_2_10947" x1="122.5" y1="141.19" x2="122.5" y2="43.4409" gradientUnits="userSpaceOnUse">
<stop stop-color="#C1C5C7"/>
<stop offset="1" stop-color="#E0E7E9"/>
</linearGradient>
<linearGradient id="paint5_linear_2_10947" x1="170.354" y1="112.107" x2="83.6875" y2="16.9863" gradientUnits="userSpaceOnUse">
<stop stop-color="#DEE1E2"/>
<stop offset="1" stop-color="#B4BCBE"/>
</linearGradient>
<linearGradient id="paint6_linear_2_10947" x1="72.211" y1="75.7359" x2="125.57" y2="170.78" gradientUnits="userSpaceOnUse">
<stop stop-color="#DEE1E2"/>
<stop offset="0.3" stop-color="#D7DBDC"/>
<stop offset="0.75" stop-color="#C3C9CB"/>
<stop offset="1" stop-color="#B4BCBE"/>
</linearGradient>
<linearGradient id="paint7_linear_2_10947" x1="41.4913" y1="95.4987" x2="117.516" y2="95.4987" gradientUnits="userSpaceOnUse">
<stop stop-color="#FEFEFC"/>
<stop offset="0.09" stop-color="#FEFEFC" stop-opacity="0.96"/>
<stop offset="0.25" stop-color="#FEFEFC" stop-opacity="0.86"/>
<stop offset="0.44" stop-color="#FEFEFD" stop-opacity="0.7"/>
<stop offset="0.68" stop-color="#FFFFFE" stop-opacity="0.47"/>
<stop offset="0.93" stop-color="white" stop-opacity="0.18"/>
<stop offset="1" stop-color="white" stop-opacity="0.1"/>
</linearGradient>
<linearGradient id="paint8_linear_2_10947" x1="114.476" y1="72.3856" x2="116.344" y2="118.17" gradientUnits="userSpaceOnUse">
<stop stop-color="#DEE1E2"/>
<stop offset="1" stop-color="#B4BCBE"/>
</linearGradient>
<linearGradient id="paint9_linear_2_10947" x1="89.5" y1="38.5089" x2="89.5" y2="59.3207" gradientUnits="userSpaceOnUse">
<stop stop-color="#DEE1E2"/>
<stop offset="1" stop-color="#B4BCBE"/>
</linearGradient>
<linearGradient id="paint10_linear_2_10947" x1="102.558" y1="47.0823" x2="84.4477" y2="57.3407" gradientUnits="userSpaceOnUse">
<stop stop-color="#DEE1E2"/>
<stop offset="1" stop-color="#B4BCBE"/>
</linearGradient>
<linearGradient id="paint11_linear_2_10947" x1="186.162" y1="133.937" x2="167.475" y2="153.647" gradientUnits="userSpaceOnUse">
<stop stop-color="#FEFEFC"/>
<stop offset="1" stop-color="#C4EAFC" stop-opacity="0.1"/>
</linearGradient>
<linearGradient id="paint12_linear_2_10947" x1="-23.2459" y1="-14.7496" x2="60.0355" y2="25.0427" gradientUnits="userSpaceOnUse">
<stop stop-color="#735CD2" stop-opacity="0.2"/>
<stop offset="1" stop-color="#8F6ACC"/>
</linearGradient>
<linearGradient id="paint13_linear_2_10947" x1="18.5577" y1="46.4313" x2="79.5857" y2="18.9469" gradientUnits="userSpaceOnUse">
<stop stop-color="#C544E6"/>
<stop offset="1" stop-color="#8F6ACC"/>
</linearGradient>
<linearGradient id="paint14_linear_2_10947" x1="167" y1="197.849" x2="167" y2="120.412" gradientUnits="userSpaceOnUse">
<stop stop-color="#EEA9FF"/>
<stop offset="1" stop-color="#C65AE1"/>
</linearGradient>
<linearGradient id="paint15_linear_2_10947" x1="177.001" y1="210.57" x2="177.001" y2="131.96" gradientUnits="userSpaceOnUse">
<stop stop-color="#C544E6"/>
<stop offset="1" stop-color="#962CB1"/>
</linearGradient>
</defs>
</svg>
