<svg width="210" height="28" viewBox="0 0 210 28" fill="none" xmlns="http://www.w3.org/2000/svg">
<path d="M64.9724 21.3244V8.65064H68.9008L72.0761 16.3971H72.2485L75.4147 8.65064H79.3431V21.3244H76.2675V13.3231H76.1042L73.192 20.3494H71.1326L68.2113 13.3231H68.048V21.3244H64.9724Z" fill="black"/>
<path d="M85.2296 21.3244V16.968L80.7116 8.65064H84.2589L86.8082 13.8238H86.9806L89.5118 8.65064H93.0591L88.5501 16.968V21.3244H85.2296Z" fill="black"/>
<path d="M96.4416 17.7146C96.484 18.1771 96.7229 18.5431 97.1584 18.8124C97.5999 19.0876 98.1654 19.2252 98.8549 19.2252C99.4779 19.2252 99.9829 19.0935 100.37 18.83C100.757 18.5665 100.951 18.2269 100.951 17.8112C100.951 17.4599 100.793 17.1788 100.479 16.968C100.164 16.7631 99.6321 16.5874 98.8821 16.4411L97.1584 16.1073C94.7391 15.6623 93.5294 14.4298 93.5294 12.4097C93.5294 11.1684 94.0042 10.1759 94.9538 9.43232C95.8973 8.68284 97.1584 8.30811 98.737 8.30811C100.267 8.30811 101.519 8.67406 102.493 9.40597C103.455 10.1379 103.951 11.0894 103.981 12.2604H100.905C100.869 11.8154 100.651 11.4495 100.252 11.1625C99.8589 10.8815 99.369 10.741 98.7823 10.741C98.1956 10.741 97.7269 10.8639 97.3761 11.1098C97.0192 11.3616 96.8408 11.6983 96.8408 12.1199C96.8408 12.7757 97.494 13.2295 98.8005 13.4812L100.488 13.7974C101.782 14.0375 102.729 14.4503 103.328 15.0358C103.932 15.6213 104.235 16.4176 104.235 17.4247C104.235 18.748 103.745 19.7844 102.765 20.5339C101.785 21.2892 100.437 21.6669 98.7188 21.6669C97.0616 21.6669 95.7461 21.3126 94.7723 20.6042C93.7925 19.8957 93.2905 18.9325 93.2663 17.7146H96.4416Z" fill="black"/>
<path d="M108.978 21.3244V11.2416H105.204V8.65064H116.082V11.2416H112.299V21.3244H108.978Z" fill="black"/>
<path d="M126.595 21.3244H117.623V8.65064H126.595V11.2416H120.952V13.7711H126.26V16.1424H120.952V18.7334H126.595V21.3244Z" fill="black"/>
<path d="M131.928 14.6142H133.897C134.508 14.6142 134.986 14.4591 135.331 14.1487C135.675 13.8384 135.848 13.408 135.848 12.8576C135.848 12.319 135.669 11.8886 135.312 11.5666C134.956 11.2445 134.481 11.0835 133.888 11.0835H131.928V14.6142ZM131.928 21.3244H128.599V8.65064H134.36C135.89 8.65064 137.088 9.01952 137.953 9.75728C138.817 10.5009 139.25 11.5256 139.25 12.8313C139.25 13.6276 139.056 14.342 138.669 14.9743C138.27 15.636 137.72 16.1161 137.018 16.4147L139.631 21.3244H135.893L133.652 16.889H131.928V21.3244Z" fill="black"/>
<path d="M141.063 21.3244V8.65064H144.393V21.3244H141.063Z" fill="black"/>
<path d="M149.989 16.6079C149.989 17.3457 150.188 17.9195 150.587 18.3294C150.993 18.7451 151.564 18.953 152.302 18.953C153.04 18.953 153.609 18.7451 154.008 18.3294C154.407 17.9254 154.607 17.3516 154.607 16.6079V8.65064H157.936V16.9505C157.936 18.3733 157.422 19.5151 156.394 20.3758C155.366 21.2365 154.002 21.6669 152.302 21.6669C150.603 21.6669 149.236 21.2365 148.201 20.3758C147.173 19.5151 146.659 18.3733 146.659 16.9505V8.65064H149.989V16.6079Z" fill="black"/>
<path d="M160.203 21.3244V8.65064H164.131L167.306 16.3971H167.479L170.645 8.65064H174.573V21.3244H171.498V13.3231H171.335L168.422 20.3494H166.363L163.442 13.3231H163.278V21.3244H160.203Z" fill="black"/>
<path d="M181.652 21.6669L176.788 8.30811H178.085L182.202 20.0098H182.319L186.436 8.30811H187.733L182.878 21.6669H181.652Z" fill="black"/>
<path d="M193.867 8.30811C195.11 8.30811 196.116 8.69384 196.885 9.46531C197.647 10.2368 198.029 11.2459 198.029 12.4926C198.029 13.7207 197.641 14.7175 196.867 15.4828C196.092 16.2481 195.086 16.6307 193.849 16.6307H190.479V21.6669H189.245V8.30811H193.867ZM190.479 15.5013H193.569C194.572 15.5013 195.356 15.2359 195.921 14.7051C196.491 14.1682 196.777 13.4307 196.777 12.4926C196.777 11.5298 196.494 10.7799 195.93 10.243C195.371 9.70601 194.584 9.43754 193.569 9.43754H190.479V15.5013Z" fill="black"/>
<path d="M199.874 21.6669V8.30811H201.09L208.667 19.3988H208.784V8.30811H210V21.6669H208.811L201.207 10.567H201.09V21.6669H199.874Z" fill="black"/>
<path d="M51.7981 17.3562L35.541 0.853534C35.4206 0.732515 35.2564 0.666504 35.0812 0.666504C34.906 0.666504 34.7418 0.732515 34.6214 0.853534L27.2318 8.35675C26.9253 8.6648 26.4436 8.6648 26.1371 8.35675L18.7475 0.853534C18.5066 0.611495 18.0797 0.611495 17.8388 0.853534L1.57081 17.3452C1.02343 17.8953 1.02343 18.7864 1.57081 19.3365L9.43114 27.3128C9.67199 27.5548 10.0989 27.5548 10.3398 27.3128L17.7294 19.8096C18.0359 19.5015 18.5176 19.5015 18.8241 19.8096L26.2247 27.3018C26.3451 27.4228 26.5093 27.4888 26.6845 27.4888C26.8596 27.4888 27.0238 27.4228 27.1442 27.3018L34.5448 19.8096C34.8513 19.5015 35.333 19.5015 35.6395 19.8096L43.0291 27.3128C43.1495 27.4338 43.3138 27.4998 43.4889 27.4998C43.6641 27.4998 43.8283 27.4338 43.9487 27.3128L51.809 19.3365C52.3455 18.7974 52.3455 17.9063 51.7981 17.3562ZM35.541 17.8953L33.6252 15.904C33.242 15.5079 33.3843 14.8368 33.9098 14.6388L36.9861 13.4726C37.5335 13.2635 38.1137 13.7256 38.0151 14.3197L37.4459 18.0713C37.3473 18.6984 36.581 18.9515 36.1322 18.5004L35.541 17.8953ZM14.4451 10.4031L9.94567 11.8443C9.51872 11.9763 9.19029 11.4482 9.50777 11.1292L14.5327 6.03537C14.8721 5.68331 15.4632 5.98036 15.3975 6.46444L14.9706 9.76497C14.9377 10.073 14.7297 10.3151 14.4451 10.4031ZM15.3538 12.2404L16.7879 16.135C16.963 16.6081 16.5142 17.0812 16.0325 16.9161L11.96 15.5519C11.6535 15.4529 11.4455 15.1668 11.4345 14.8368L11.4017 13.3185C11.3907 12.9775 11.6097 12.6694 11.9381 12.5594L14.4013 11.7673C14.7954 11.6463 15.2114 11.8553 15.3538 12.2404ZM12.5293 17.0922L15.934 18.2363C16.4813 18.4234 16.6346 19.1055 16.2405 19.5125L12.4417 23.3632C12.1461 23.6602 11.6425 23.4622 11.6316 23.0441L11.5112 17.8623C11.5002 17.3122 12.0148 16.9271 12.5293 17.0922ZM18.233 12.5924L22.4915 14.3747C22.9076 14.5507 23.0827 15.0348 22.8857 15.4419L21.1669 18.8964C20.926 19.3695 20.302 19.4685 19.9298 19.0945L18.9664 18.1153C18.8898 18.0383 18.8241 17.9393 18.7913 17.8403L17.2258 13.5826C16.9849 12.9445 17.6089 12.3284 18.233 12.5924ZM37.5991 11.8773L34.4681 13.0545C34.0521 13.2085 33.5923 12.9885 33.461 12.5594L33.1873 11.6793C33.0997 11.4042 33.1763 11.0962 33.3843 10.8982L36.5263 7.82866C36.7781 7.57562 37.205 7.69664 37.3036 8.0487L38.0699 10.9532C38.1684 11.3382 37.9714 11.7453 37.5991 11.8773ZM31.8298 14.0557L28.5455 15.2879C28.3594 15.3539 28.1624 15.3539 27.9763 15.2769L27.4508 15.0568C27.1442 14.9248 26.9581 14.6168 26.98 14.2757L27.2866 10.3811C27.2975 10.194 27.3741 10.029 27.5055 9.89699L29.487 7.88367C29.8921 7.4656 30.5927 7.64163 30.7679 8.20272L32.2786 13.0985C32.41 13.4946 32.202 13.9126 31.8298 14.0557ZM24.7139 13.9126L23.6629 13.4726C23.433 13.3736 23.2688 13.1755 23.2141 12.9445L21.8566 7.37759C21.7143 6.8055 22.4149 6.40943 22.8309 6.8275L25.7758 9.80898C25.9291 9.97401 26.0167 10.194 25.9948 10.4141L25.7758 13.2525C25.732 13.7916 25.1956 14.1217 24.7139 13.9126ZM25.0971 15.4749L27.2975 16.399C27.5384 16.4981 27.7135 16.7071 27.7573 16.9711L28.1733 19.1495C28.2718 19.6336 27.7792 20.0296 27.3304 19.8316L23.7943 18.3024C23.3892 18.1263 23.2141 17.6422 23.4111 17.2462L24.1118 15.849C24.2979 15.4749 24.7248 15.3099 25.0971 15.4749ZM29.5855 16.278L31.0197 15.7389C31.3043 15.6289 31.6327 15.7059 31.8407 15.926L33.658 17.8073C33.9536 18.1153 33.9427 18.5884 33.6471 18.8964L31.1401 21.4379C30.7022 21.8779 29.9578 21.6469 29.8373 21.0418L29.0929 17.1692C29.0272 16.7731 29.2352 16.41 29.5855 16.278ZM40.2156 12.6474L41.5403 12.6144C41.8358 12.6034 42.1095 12.7685 42.2409 13.0325L43.9706 16.344C44.1129 16.6081 44.0801 16.9381 43.9049 17.1802L40.4893 21.6799C40.2047 22.054 39.6573 22.087 39.3288 21.7569L38.6173 21.0308C38.4421 20.8548 38.3655 20.6127 38.3983 20.3707L39.4712 13.3185C39.5259 12.9335 39.8434 12.6584 40.2156 12.6474ZM39.3507 10.7881L38.3874 7.11354C38.2341 6.54145 38.9347 6.13439 39.3507 6.55245L42.7335 9.98501C43.2043 10.4691 42.8868 11.2832 42.208 11.3052L40.1171 11.3602C39.7558 11.3712 39.4383 11.1292 39.3507 10.7881ZM35.6286 2.77885L35.8804 3.03189C35.9789 3.1309 36.0446 3.25192 36.0774 3.38394L36.6139 5.41927C36.6905 5.69432 36.6029 5.98036 36.4059 6.17839L33.5267 8.98385C33.1107 9.39091 32.421 9.21488 32.2567 8.65379L31.5561 6.38743C31.4685 6.11238 31.5452 5.81534 31.7422 5.6063L34.5338 2.76784C34.8404 2.4708 35.333 2.4708 35.6286 2.77885ZM18.8351 2.77885L19.4591 3.40595C19.5576 3.50496 19.6233 3.62598 19.6561 3.76901L21.4625 11.2172C21.6157 11.8333 21.0027 12.3614 20.4115 12.1194L16.7331 10.5681C16.4157 10.4361 16.2186 10.095 16.2624 9.75397L17.0397 3.714C17.0616 3.54897 17.1382 3.38394 17.2586 3.26292L17.7403 2.76784C18.0468 2.4708 18.5395 2.4708 18.8351 2.77885ZM6.50815 14.2977L9.13556 13.4506C9.6282 13.2965 10.1318 13.6486 10.1427 14.1657L10.2084 16.7511C10.2194 17.0371 10.0661 17.3012 9.82525 17.4442L5.06307 20.2277C4.75654 20.4037 4.37338 20.3487 4.13253 20.1066L2.93925 18.8964C2.64367 18.5994 2.64367 18.1043 2.93925 17.8073L6.20162 14.4957C6.27825 14.3967 6.38773 14.3307 6.50815 14.2977ZM9.52967 25.5855L6.19067 22.197C5.84035 21.8339 5.91698 21.2398 6.35488 20.9868L9.13556 19.3585C9.63914 19.0615 10.285 19.4245 10.296 20.0076L10.4164 25.2115C10.4164 25.3545 10.3617 25.4865 10.2632 25.5855C10.0551 25.7836 9.72672 25.7836 9.52967 25.5855ZM26.1371 25.3985L22.0208 21.2178C21.7909 20.9868 21.7362 20.6237 21.8785 20.3267L22.1522 19.7766C22.3383 19.4135 22.7762 19.2485 23.1484 19.4135L28.3266 21.6469C28.5565 21.7459 28.7316 21.9549 28.7754 22.208L28.9615 23.1651C29.0053 23.4182 28.9287 23.6712 28.7535 23.8582L27.2428 25.3985C26.9253 25.7065 26.4436 25.7065 26.1371 25.3985ZM42.9306 25.3985L41.3322 23.7702C41.0586 23.4952 41.0367 23.0661 41.2666 22.7581L44.1239 18.9955C44.4632 18.5444 45.1529 18.5994 45.4157 19.1055L46.8279 21.7899C46.9812 22.087 46.9264 22.461 46.6965 22.6921L44.0363 25.3985C43.7298 25.7065 43.2371 25.7065 42.9306 25.3985ZM47.5504 20.4037L43.8392 13.3185C43.6531 12.9665 43.9049 12.5374 44.299 12.5374L44.8902 12.5264C45.0982 12.5154 45.3062 12.6034 45.4595 12.7575L50.4406 17.8073C50.7362 18.1043 50.7362 18.5994 50.4406 18.8964L48.7766 20.5797C48.4044 20.9538 47.7913 20.8658 47.5504 20.4037Z" fill="#C574D9"/>
</svg>
