<svg width="189" height="177" viewBox="0 0 189 177" fill="none" xmlns="http://www.w3.org/2000/svg">
    <g filter="url(#filter0_i_165_54286)">
        <ellipse opacity="0.07" cx="105.997" cy="85.5659" rx="82.2853" ry="85.5073" fill="#6A678E"/>
        <g filter="url(#filter1_d_165_54286)">
            <ellipse cx="36.1429" cy="40.659" rx="1.77594" ry="1.84548" fill="#6A678E"/>
        </g>
    </g>
    <g filter="url(#filter2_d_165_54286)">
        <g opacity="0.07" filter="url(#filter3_i_165_54286)">
            <ellipse cx="106.195" cy="85.772" rx="61.1726" ry="63.5679" fill="#6A678E"/>
        </g>
    </g>
    <g filter="url(#filter4_i_165_54286)">
        <ellipse opacity="0.07" cx="106.242" cy="85.8211" rx="41.684" ry="43.3162" fill="#6A678E"/>
        <ellipse cx="78.4189" cy="117.809" rx="2.9599" ry="3.07581" fill="#6A678E"/>
    </g>
    <ellipse cx="132.266" cy="53.49" rx="1.77151" ry="1.84548" fill="#6A678E"/>
    <g filter="url(#filter7_di_165_54286)">
        <ellipse cx="105.207" cy="85.7653" rx="23.4877" ry="24.5046" fill="#C544E6"/>
    </g>
    <path d="M112.029 91.9463C110.575 91.8695 109.126 91.6955 107.668 91.6912C105.953 91.6861 104.277 91.9148 102.684 92.6324C102.441 92.7425 102.452 92.833 102.567 93.0369C103.378 94.4782 104.191 95.9186 104.981 97.3727C105.99 99.2304 105.068 101.444 103.102 101.922C101.86 102.223 100.575 101.64 99.9022 100.448C99.074 98.9804 98.2549 97.5067 97.4465 96.027C97.319 95.7941 97.217 95.7625 96.9736 95.8487C94.2424 96.8146 91.2718 95.4928 90.0588 92.7886C88.8539 90.1014 89.7931 86.8895 92.2497 85.3517C93.2933 84.6981 94.3361 84.0376 95.4168 83.4548C97.6562 82.2447 99.2484 80.4032 100.434 78.1325C101.123 76.8141 101.717 75.4479 102.367 74.1099C102.822 73.1729 103.522 72.6199 104.539 72.5892C105.555 72.5585 106.293 73.0645 106.792 73.9759C107.416 75.1125 108.053 76.2406 108.677 77.3764C108.776 77.5574 108.846 77.629 109.07 77.5335C110.832 76.7817 112.818 77.5027 113.773 79.2231C114.691 80.876 114.288 83.0298 112.824 84.2211C112.642 84.3687 112.615 84.4643 112.733 84.6716C113.363 85.7793 113.969 86.9023 114.602 88.0082C115.136 88.9409 115.21 89.877 114.641 90.8071C114.072 91.739 113.217 92.0718 112.181 91.96C112.13 91.9549 112.079 91.9515 112.028 91.9472L112.029 91.9463ZM112.031 90.3463C112.113 90.354 112.195 90.3583 112.276 90.3685C112.709 90.4248 113.099 90.366 113.354 89.9419C113.602 89.5288 113.467 89.1585 113.255 88.7788C110.659 84.1221 108.065 79.4637 105.477 74.8019C105.273 74.435 105.024 74.1687 104.59 74.179C104.155 74.1892 103.911 74.464 103.733 74.8454C103.209 75.9633 102.681 77.0803 102.143 78.1905C101.061 80.4229 99.7007 82.4248 97.6891 83.8729C97.5427 83.9779 97.5764 84.0615 97.6455 84.1852C98.9449 86.5131 100.243 88.841 101.536 91.1724C101.616 91.3157 101.679 91.3695 101.842 91.2884C103.685 90.3694 105.651 90.0801 107.671 90.0912C109.128 90.0989 110.578 90.2661 112.032 90.3463H112.031ZM91.0786 90.1714C91.0909 93.5378 94.3748 95.573 97.0813 94.0686C98.1094 93.4969 99.1045 92.8603 100.119 92.2621C100.275 92.1708 100.284 92.0991 100.198 91.9463C98.9079 89.6398 97.6217 87.3315 96.3412 85.0198C96.2491 84.8534 96.1792 84.8235 96.013 84.9251C95.0245 85.5284 94.017 86.0984 93.04 86.7214C91.7398 87.5499 91.1246 88.7984 91.0777 90.1723L91.0786 90.1714ZM103.858 98.9326C103.872 98.7142 103.817 98.4761 103.698 98.2611C102.858 96.7421 102.011 95.2266 101.172 93.7059C101.089 93.5557 101.022 93.5566 100.89 93.6377C100.211 94.0532 99.5297 94.4637 98.8421 94.8622C98.6776 94.9578 98.653 95.0354 98.7517 95.2044C99.0428 95.7036 99.3183 96.213 99.6004 96.7191C100.154 97.7115 100.698 98.7091 101.263 99.6947C101.6 100.281 102.244 100.528 102.857 100.343C103.442 100.167 103.851 99.6042 103.858 98.9326ZM112.72 81.4179C112.724 79.6088 111.284 78.4841 109.867 78.9184C109.675 78.9773 109.594 79.0319 109.723 79.2581C110.392 80.4365 111.05 81.6227 111.701 82.8122C111.805 83.0017 111.875 82.994 112.011 82.8566C112.472 82.3872 112.714 81.8232 112.72 81.4179H112.72Z"
          fill="white"/>
    <path d="M118.883 76.5903C118.88 76.8932 118.745 77.1228 118.499 77.2712C117.563 77.8379 116.626 78.4045 115.682 78.9566C115.297 79.1819 114.848 79.0411 114.642 78.6682C114.434 78.2927 114.539 77.8165 114.916 77.5853C115.848 77.0127 116.785 76.4461 117.732 75.8999C118.281 75.5833 118.89 75.9639 118.884 76.5903H118.883Z"
          fill="white"/>
    <path d="M112.138 75.4492C111.48 75.4577 111.071 74.8544 111.339 74.3381C111.867 73.3201 112.433 72.3234 113.009 71.3335C113.218 70.9743 113.675 70.9077 114.017 71.1219C114.344 71.3267 114.5 71.7645 114.31 72.1212C113.77 73.1324 113.207 74.1308 112.641 75.1266C112.515 75.3485 112.29 75.4441 112.138 75.4492Z"
          fill="white"/>
    <path d="M118.264 82.2177C118.778 82.2177 119.29 82.2125 119.803 82.2194C120.292 82.2253 120.624 82.5556 120.621 83.0181C120.619 83.4772 120.284 83.8091 119.795 83.8117C118.779 83.8177 117.764 83.8177 116.749 83.8117C116.257 83.8091 115.921 83.484 115.916 83.0258C115.909 82.5522 116.249 82.2228 116.757 82.2185C117.259 82.2143 117.762 82.2177 118.264 82.2177Z"
          fill="white"/>
    <defs>
        <filter id="filter0_i_165_54286" x="23.7112" y="0.0585938" width="164.571" height="175.015"
                filterUnits="userSpaceOnUse" color-interpolation-filters="sRGB">
            <feFlood flood-opacity="0" result="BackgroundImageFix"/>
            <feBlend mode="normal" in="SourceGraphic" in2="BackgroundImageFix" result="shape"/>
            <feColorMatrix in="SourceAlpha" type="matrix" values="0 0 0 0 0 0 0 0 0 0 0 0 0 0 0 0 0 0 127 0"
                           result="hardAlpha"/>
            <feOffset dy="4"/>
            <feGaussianBlur stdDeviation="3"/>
            <feComposite in2="hardAlpha" operator="arithmetic" k2="-1" k3="1"/>
            <feColorMatrix type="matrix" values="0 0 0 0 0 0 0 0 0 0 0 0 0 0 0 0 0 0 0.15 0"/>
            <feBlend mode="normal" in2="shape" result="effect1_innerShadow_165_54286"/>
        </filter>
        <filter id="filter2_d_165_54286" x="39.0225" y="20.2041" width="134.345" height="139.136"
                filterUnits="userSpaceOnUse" color-interpolation-filters="sRGB">
            <feFlood flood-opacity="0" result="BackgroundImageFix"/>
            <feColorMatrix in="SourceAlpha" type="matrix" values="0 0 0 0 0 0 0 0 0 0 0 0 0 0 0 0 0 0 127 0"
                           result="hardAlpha"/>
            <feOffset dy="4"/>
            <feGaussianBlur stdDeviation="3"/>
            <feComposite in2="hardAlpha" operator="out"/>
            <feColorMatrix type="matrix" values="0 0 0 0 0 0 0 0 0 0 0 0 0 0 0 0 0 0 0.15 0"/>
            <feBlend mode="normal" in2="BackgroundImageFix" result="effect1_dropShadow_165_54286"/>
            <feBlend mode="normal" in="SourceGraphic" in2="effect1_dropShadow_165_54286" result="shape"/>
        </filter>
        <filter id="filter3_i_165_54286" x="45.0225" y="22.2041" width="122.345" height="131.136"
                filterUnits="userSpaceOnUse" color-interpolation-filters="sRGB">
            <feFlood flood-opacity="0" result="BackgroundImageFix"/>
            <feBlend mode="normal" in="SourceGraphic" in2="BackgroundImageFix" result="shape"/>
            <feColorMatrix in="SourceAlpha" type="matrix" values="0 0 0 0 0 0 0 0 0 0 0 0 0 0 0 0 0 0 127 0"
                           result="hardAlpha"/>
            <feOffset dy="4"/>
            <feGaussianBlur stdDeviation="3"/>
            <feComposite in2="hardAlpha" operator="arithmetic" k2="-1" k3="1"/>
            <feColorMatrix type="matrix" values="0 0 0 0 0 0 0 0 0 0 0 0 0 0 0 0 0 0 0.15 0"/>
            <feBlend mode="normal" in2="shape" result="effect1_innerShadow_165_54286"/>
        </filter>
        <filter id="filter4_i_165_54286" x="64.5579" y="42.5049" width="83.368" height="90.6328"
                filterUnits="userSpaceOnUse" color-interpolation-filters="sRGB">
            <feFlood flood-opacity="0" result="BackgroundImageFix"/>
            <feBlend mode="normal" in="SourceGraphic" in2="BackgroundImageFix" result="shape"/>
            <feColorMatrix in="SourceAlpha" type="matrix" values="0 0 0 0 0 0 0 0 0 0 0 0 0 0 0 0 0 0 127 0"
                           result="hardAlpha"/>
            <feOffset dy="4"/>
            <feGaussianBlur stdDeviation="3"/>
            <feComposite in2="hardAlpha" operator="arithmetic" k2="-1" k3="1"/>
            <feColorMatrix type="matrix" values="0 0 0 0 0 0 0 0 0 0 0 0 0 0 0 0 0 0 0.15 0"/>
            <feBlend mode="normal" in2="shape" result="effect1_innerShadow_165_54286"/>
        </filter>
        <filter id="filter5_d_165_54286" x="38.0489" y="96.0284" width="80.7399" height="80.9715"
                filterUnits="userSpaceOnUse" color-interpolation-filters="sRGB">
            <feFlood flood-opacity="0" result="BackgroundImageFix"/>
            <feColorMatrix in="SourceAlpha" type="matrix" values="0 0 0 0 0 0 0 0 0 0 0 0 0 0 0 0 0 0 127 0"
                           result="hardAlpha"/>
            <feOffset dy="18.705"/>
            <feGaussianBlur stdDeviation="18.705"/>
            <feComposite in2="hardAlpha" operator="out"/>
            <feColorMatrix type="matrix" values="0 0 0 0 0.882353 0 0 0 0 0.270588 0 0 0 0 0.529412 0 0 0 0.3 0"/>
            <feBlend mode="normal" in2="BackgroundImageFix" result="effect1_dropShadow_165_54286"/>
            <feBlend mode="normal" in="SourceGraphic" in2="effect1_dropShadow_165_54286" result="shape"/>
        </filter>
        <filter id="filter6_d_165_54286" x="97.0842" y="32.9395" width="78.3632" height="78.5116"
                filterUnits="userSpaceOnUse" color-interpolation-filters="sRGB">
            <feFlood flood-opacity="0" result="BackgroundImageFix"/>
            <feColorMatrix in="SourceAlpha" type="matrix" values="0 0 0 0 0 0 0 0 0 0 0 0 0 0 0 0 0 0 127 0"
                           result="hardAlpha"/>
            <feOffset dx="4" dy="18.705"/>
            <feGaussianBlur stdDeviation="18.705"/>
            <feComposite in2="hardAlpha" operator="out"/>
            <feColorMatrix type="matrix" values="0 0 0 0 0.14902 0 0 0 0 0.0117647 0 0 0 0 0.235294 0 0 0 1 0"/>
            <feBlend mode="normal" in2="BackgroundImageFix" result="effect1_dropShadow_165_54286"/>
            <feBlend mode="normal" in="SourceGraphic" in2="effect1_dropShadow_165_54286" result="shape"/>
        </filter>
        <filter id="filter7_di_165_54286" x="77.7192" y="61.2607" width="54.9753" height="57.0088"
                filterUnits="userSpaceOnUse" color-interpolation-filters="sRGB">
            <feFlood flood-opacity="0" result="BackgroundImageFix"/>
            <feColorMatrix in="SourceAlpha" type="matrix" values="0 0 0 0 0 0 0 0 0 0 0 0 0 0 0 0 0 0 127 0"
                           result="hardAlpha"/>
            <feOffset dy="4"/>
            <feGaussianBlur stdDeviation="2"/>
            <feComposite in2="hardAlpha" operator="out"/>
            <feColorMatrix type="matrix" values="0 0 0 0 0 0 0 0 0 0 0 0 0 0 0 0 0 0 0.25 0"/>
            <feBlend mode="normal" in2="BackgroundImageFix" result="effect1_dropShadow_165_54286"/>
            <feBlend mode="normal" in="SourceGraphic" in2="effect1_dropShadow_165_54286" result="shape"/>
            <feColorMatrix in="SourceAlpha" type="matrix" values="0 0 0 0 0 0 0 0 0 0 0 0 0 0 0 0 0 0 127 0"
                           result="hardAlpha"/>
            <feOffset dy="4"/>
            <feGaussianBlur stdDeviation="2"/>
            <feComposite in2="hardAlpha" operator="arithmetic" k2="-1" k3="1"/>
            <feColorMatrix type="matrix" values="0 0 0 0 1 0 0 0 0 1 0 0 0 0 1 0 0 0 0.45 0"/>
            <feBlend mode="normal" in2="shape" result="effect2_innerShadow_165_54286"/>
        </filter>
    </defs>
</svg>
