<svg width="166" height="172" viewBox="0 0 166 172" fill="none" xmlns="http://www.w3.org/2000/svg">
<g filter="url(#filter0_i_285_7086)">
<ellipse opacity="0.07" cx="82.9965" cy="85.5659" rx="82.2853" ry="85.5073" fill="#6A678E"/>
<ellipse cx="13.1429" cy="40.659" rx="1.77594" ry="1.84548" fill="#6A678E"/>
</g>
<g filter="url(#filter1_d_285_7086)">
<g opacity="0.07" filter="url(#filter2_i_285_7086)">
<ellipse cx="83.1951" cy="85.772" rx="61.1726" ry="63.5679" fill="#6A678E"/>
</g>
</g>
<g filter="url(#filter3_i_285_7086)">
<ellipse opacity="0.07" cx="83.2421" cy="85.8201" rx="41.684" ry="43.3162" fill="#6A678E"/>
<ellipse cx="55.4191" cy="117.808" rx="2.9599" ry="3.07581" fill="#6A678E"/>
</g>
<ellipse cx="109.266" cy="53.49" rx="1.77151" ry="1.84548" fill="#6A678E"/>
<g filter="url(#filter4_di_285_7086)">
<ellipse cx="82.2067" cy="85.7653" rx="23.4877" ry="24.5046" fill="#6A678E"/>
</g>
<path d="M94.4565 83.3113L91.7093 82.4768C91.6177 82.106 91.4346 81.7351 91.2514 81.3642L92.8998 78.8609C93.1745 78.4901 93.0829 78.0265 92.8082 77.7483L89.8778 74.7815C89.6031 74.5033 89.1452 74.4106 88.8705 74.596L86.3064 75.9868C85.9401 75.8013 85.5738 75.6159 85.2075 75.5232L84.6581 72.5563C84.5665 72.2781 84.2002 72 83.8339 72H79.6215C79.2552 72 78.8889 72.2781 78.7973 72.649L77.9732 75.4305C77.6069 75.5232 77.2406 75.7086 76.8743 75.894L74.4933 74.2252C74.127 73.947 73.6692 74.0397 73.3944 74.3179L70.4641 77.2848C70.1893 77.5629 70.0978 78.0265 70.2809 78.3974L71.6545 80.9934C71.563 81.2715 71.3798 81.6424 71.1967 82.0132L68.2663 82.5695C67.9 82.6623 67.5337 83.0331 67.5337 83.404V87.6689C67.5337 88.0397 67.8084 88.4106 68.1747 88.5033L70.9219 89.3377C71.0135 89.7086 71.1967 90.0795 71.3798 90.4503L69.7315 92.9536C69.4568 93.3245 69.5483 93.7881 69.823 94.0662L72.9366 97.0331C73.1197 97.2185 73.3029 97.3113 73.5776 97.3113C73.7607 97.3113 73.8523 97.3113 74.0355 97.2185L76.5996 95.8278C76.9658 96.0132 77.3321 96.1987 77.6984 96.2914L78.2479 99.2583C78.3395 99.6291 78.7058 100 79.0721 100H83.2845C83.6508 100 84.0171 99.7219 84.1086 99.351L84.9328 96.5695C85.2991 96.4768 85.6654 96.2914 86.0317 96.106L88.5042 97.7748C88.6874 97.8675 88.7789 97.9603 88.9621 97.9603C89.1452 97.9603 89.42 97.8675 89.6031 97.6821L92.5335 94.7152C92.8082 94.4371 92.8998 93.9735 92.7166 93.6954L91.343 91.0993C91.5262 90.7285 91.7093 90.3576 91.8009 89.9868L94.7313 89.4305C95.0976 89.3377 95.4639 88.9669 95.4639 88.596V84.3311C95.0976 83.7748 94.8228 83.404 94.4565 83.3113ZM93.3577 87.6689L91.984 87.947L90.7936 88.1324C90.702 88.1324 90.6104 88.2252 90.5189 88.2252C90.2441 89.245 89.8778 90.1722 89.2368 91.0993C89.2368 91.1921 89.3284 91.2848 89.3284 91.3775L89.9694 92.5828L90.6104 93.6954L88.5958 95.7351L87.4969 94.9934L86.398 94.2517C86.3064 94.1589 86.2149 94.1589 86.1233 94.1589C85.2075 94.7152 84.2918 95.0861 83.2845 95.2715C83.1929 95.3642 83.1929 95.457 83.1929 95.5497L82.8266 96.8477L82.4603 98.1457H79.6215L79.3468 96.755L79.0721 95.457C79.0721 95.3642 78.9805 95.2715 78.9805 95.1788C77.9732 94.9007 77.0574 94.4371 76.1417 93.8808C76.0501 93.8808 75.9585 93.9735 75.867 93.9735L74.6765 94.6225L73.5776 95.2715L71.563 93.2318L72.2956 92.1192L73.0282 91.0066C73.1197 90.9139 73.1197 90.8212 73.1197 90.7285C72.5703 89.8013 72.204 88.8742 72.0208 87.8543C72.1124 87.7616 72.0208 87.7616 71.9293 87.7616L70.6472 87.3907L69.3652 87.0199V84.1457L70.7388 83.8675L72.0208 83.5894C72.1124 83.5894 72.204 83.4967 72.2956 83.4967C72.5703 82.4768 72.9366 81.5497 73.5776 80.6225C73.5776 80.5298 73.486 80.4371 73.486 80.3444L72.7534 79.2318L72.1124 78.1192L74.127 76.0795L75.2259 76.8212L76.3248 77.5629C76.4164 77.6556 76.508 77.6556 76.5996 77.6556C77.5153 77.0993 78.431 76.7285 79.4384 76.543C79.5299 76.4503 79.5299 76.3576 79.5299 76.2649L79.8962 74.9669L80.2625 73.6689H83.1013L83.3761 75.0596L83.6508 76.3576C83.6508 76.4503 83.7423 76.543 83.7423 76.6358C84.7497 76.9139 85.6654 77.2848 86.5812 77.9338C86.6727 77.9338 86.7643 77.8411 86.8559 77.8411L88.0463 77.1921L89.1452 76.543L91.1599 78.5828L90.4273 79.6954L89.6947 80.8079C89.6031 80.9007 89.6031 80.9934 89.6031 81.0861C90.1526 82.0132 90.5189 82.9404 90.702 83.9603C90.702 84.053 90.7936 84.053 90.7936 84.053L92.0756 84.4238L93.3577 84.7947V87.6689Z" fill="white"/>
<path d="M81.3613 79.8809C78.0646 79.8809 75.4089 82.5696 75.4089 85.9073C75.4089 89.2451 78.0646 91.9338 81.3613 91.9338C84.6579 91.9338 87.3136 89.2451 87.3136 85.9073C87.4052 82.5696 84.6579 79.8809 81.3613 79.8809ZM81.3613 90.265C78.9803 90.265 77.0573 88.3179 77.0573 85.9073C77.0573 83.4968 78.9803 81.5497 81.3613 81.5497C83.7422 81.5497 85.6653 83.4968 85.6653 85.9073C85.6653 88.3179 83.7422 90.265 81.3613 90.265Z" fill="white"/>
<defs>
<filter id="filter0_i_285_7086" x="0.711182" y="0.0585938" width="164.571" height="175.015" filterUnits="userSpaceOnUse" color-interpolation-filters="sRGB">
<feFlood flood-opacity="0" result="BackgroundImageFix"/>
<feBlend mode="normal" in="SourceGraphic" in2="BackgroundImageFix" result="shape"/>
<feColorMatrix in="SourceAlpha" type="matrix" values="0 0 0 0 0 0 0 0 0 0 0 0 0 0 0 0 0 0 127 0" result="hardAlpha"/>
<feOffset dy="4"/>
<feGaussianBlur stdDeviation="3"/>
<feComposite in2="hardAlpha" operator="arithmetic" k2="-1" k3="1"/>
<feColorMatrix type="matrix" values="0 0 0 0 0 0 0 0 0 0 0 0 0 0 0 0 0 0 0.15 0"/>
<feBlend mode="normal" in2="shape" result="effect1_innerShadow_285_7086"/>
</filter>
<filter id="filter1_d_285_7086" x="16.0225" y="20.2041" width="134.345" height="139.136" filterUnits="userSpaceOnUse" color-interpolation-filters="sRGB">
<feFlood flood-opacity="0" result="BackgroundImageFix"/>
<feColorMatrix in="SourceAlpha" type="matrix" values="0 0 0 0 0 0 0 0 0 0 0 0 0 0 0 0 0 0 127 0" result="hardAlpha"/>
<feOffset dy="4"/>
<feGaussianBlur stdDeviation="3"/>
<feComposite in2="hardAlpha" operator="out"/>
<feColorMatrix type="matrix" values="0 0 0 0 0 0 0 0 0 0 0 0 0 0 0 0 0 0 0.15 0"/>
<feBlend mode="normal" in2="BackgroundImageFix" result="effect1_dropShadow_285_7086"/>
<feBlend mode="normal" in="SourceGraphic" in2="effect1_dropShadow_285_7086" result="shape"/>
</filter>
<filter id="filter2_i_285_7086" x="22.0225" y="22.2041" width="122.345" height="131.136" filterUnits="userSpaceOnUse" color-interpolation-filters="sRGB">
<feFlood flood-opacity="0" result="BackgroundImageFix"/>
<feBlend mode="normal" in="SourceGraphic" in2="BackgroundImageFix" result="shape"/>
<feColorMatrix in="SourceAlpha" type="matrix" values="0 0 0 0 0 0 0 0 0 0 0 0 0 0 0 0 0 0 127 0" result="hardAlpha"/>
<feOffset dy="4"/>
<feGaussianBlur stdDeviation="3"/>
<feComposite in2="hardAlpha" operator="arithmetic" k2="-1" k3="1"/>
<feColorMatrix type="matrix" values="0 0 0 0 0 0 0 0 0 0 0 0 0 0 0 0 0 0 0.15 0"/>
<feBlend mode="normal" in2="shape" result="effect1_innerShadow_285_7086"/>
</filter>
<filter id="filter3_i_285_7086" x="41.5581" y="42.5039" width="83.3679" height="90.6328" filterUnits="userSpaceOnUse" color-interpolation-filters="sRGB">
<feFlood flood-opacity="0" result="BackgroundImageFix"/>
<feBlend mode="normal" in="SourceGraphic" in2="BackgroundImageFix" result="shape"/>
<feColorMatrix in="SourceAlpha" type="matrix" values="0 0 0 0 0 0 0 0 0 0 0 0 0 0 0 0 0 0 127 0" result="hardAlpha"/>
<feOffset dy="4"/>
<feGaussianBlur stdDeviation="3"/>
<feComposite in2="hardAlpha" operator="arithmetic" k2="-1" k3="1"/>
<feColorMatrix type="matrix" values="0 0 0 0 0 0 0 0 0 0 0 0 0 0 0 0 0 0 0.15 0"/>
<feBlend mode="normal" in2="shape" result="effect1_innerShadow_285_7086"/>
</filter>
<filter id="filter4_di_285_7086" x="54.719" y="61.2607" width="54.9753" height="57.0088" filterUnits="userSpaceOnUse" color-interpolation-filters="sRGB">
<feFlood flood-opacity="0" result="BackgroundImageFix"/>
<feColorMatrix in="SourceAlpha" type="matrix" values="0 0 0 0 0 0 0 0 0 0 0 0 0 0 0 0 0 0 127 0" result="hardAlpha"/>
<feOffset dy="4"/>
<feGaussianBlur stdDeviation="2"/>
<feComposite in2="hardAlpha" operator="out"/>
<feColorMatrix type="matrix" values="0 0 0 0 0 0 0 0 0 0 0 0 0 0 0 0 0 0 0.25 0"/>
<feBlend mode="normal" in2="BackgroundImageFix" result="effect1_dropShadow_285_7086"/>
<feBlend mode="normal" in="SourceGraphic" in2="effect1_dropShadow_285_7086" result="shape"/>
<feColorMatrix in="SourceAlpha" type="matrix" values="0 0 0 0 0 0 0 0 0 0 0 0 0 0 0 0 0 0 127 0" result="hardAlpha"/>
<feOffset dy="4"/>
<feGaussianBlur stdDeviation="2"/>
<feComposite in2="hardAlpha" operator="arithmetic" k2="-1" k3="1"/>
<feColorMatrix type="matrix" values="0 0 0 0 1 0 0 0 0 1 0 0 0 0 1 0 0 0 0.45 0"/>
<feBlend mode="normal" in2="shape" result="effect2_innerShadow_285_7086"/>
</filter>
</defs>
</svg>
